<?xml version="1.0" encoding="utf-8"?>
<!-- Generator: Adobe Illustrator 20.1.0, SVG Export Plug-In . SVG Version: 6.00 Build 0)  -->
<svg version="1.1" id="Layer_1" xmlns="http://www.w3.org/2000/svg" xmlns:xlink="http://www.w3.org/1999/xlink" x="0px" y="0px"
	 viewBox="0 0 29.9 31.5" style="enable-background:new 0 0 29.9 31.5;" xml:space="preserve">
<style type="text/css">
	.st0{fill:none;stroke:#FFFFFF;stroke-width:1.5;stroke-miterlimit:10;}
</style>
<g>
	<g>
		<path class="st0" d="M6,15.1c0.6,0,1.3,0,1.9,0.1c0.1,0,0.1,0,0.2,0.1c0,0,0.1,0.1,0.1,0.2c0.2,2.2,0.3,4.4,0.5,6.6
			c0.1,1.5,0.2,3.1,0.3,4.6c0.1,0.7,0.1,1.4,0.1,2c0,0.4,0,0.9,0,1.3c0,0.1,0,0.2,0,0.3c-0.1,0.1-0.2,0.2-0.3,0.3s-0.3,0.1-0.4,0.1
			c-1.7,0.1-3.9,0.4-5.2-0.9c-0.8-0.8-1.2-2-1.5-2.9c-0.4-1.5-0.7-3-0.8-4.5c-0.1-1.7,0-3.7,0.9-5.3C2.6,15.5,4.3,15.1,6,15.1z"/>
		<path class="st0" d="M24.8,15.3c-1.1-0.1-2.3-0.1-3.5,0c-0.1,0-0.2,0-0.2,0.1c0,0,0,0.1,0,0.2c0,1.7,0.2,3.3,0.1,5
			c-0.1,0.8,0,1.5,0,2.3c0,0.9-0.1,1.7,0,2.6c0,1.5,0.1,3.2,0.3,4.7c0,0.1,0,0.2,0.1,0.2c0.1,0.1,0.2,0.1,0.3,0.1
			c1.9,0.2,5.4,0.8,6.7-1c0.4-0.6,0.5-1.4,0.5-2.1c0.1-2.1,0.1-4.3,0.2-6.4c0-1.6-0.3-3.3-1.7-4.5C26.7,15.7,25.8,15.4,24.8,15.3z"
			/>
		<path class="st0" d="M29.1,23.8c0.1-2.3,0.1-4.7-0.1-7c-0.2-3.6-0.5-7.3-2.3-10.4c-1.1-1.9-2.5-3.1-4.5-4c-2-1-4.1-1.5-6.3-1.6
			C12.5,0.6,9,1.7,6.2,3.7C5.7,4.1,5.1,4.6,4.7,5.1C4.3,5.7,3.2,7.1,3,7.8c-2.9,6.3-2.1,10.4-2.1,15.2"/>
	</g>
	<path class="st0" d="M4.7,15.2c0-2.9,1-5.8,2.8-7.9c0.6-0.7,1.3-1.3,2-1.8c0.8-0.5,1.6-0.8,2.5-0.9c1.6-0.3,3.2-0.3,4.9-0.2
		c0.8,0.1,1.7,0.2,2.5,0.5c0.7,0.3,1.3,0.9,1.9,1.4c0.6,0.6,1.3,1.2,1.8,1.9c1.6,2.1,2.1,4.3,2.3,6.9"/>
</g>
</svg>
