<?xml version="1.0" encoding="utf-8"?>
<!-- Generator: Adobe Illustrator 20.1.0, SVG Export Plug-In . SVG Version: 6.00 Build 0)  -->
<svg version="1.1" id="Layer_1" xmlns="http://www.w3.org/2000/svg" xmlns:xlink="http://www.w3.org/1999/xlink" x="0px" y="0px"
	 viewBox="0 0 56.2 31.5" style="enable-background:new 0 0 56.2 31.5;" xml:space="preserve">
<style type="text/css">
	.st0{fill:none;stroke:#FFFFFF;stroke-width:1.75;stroke-miterlimit:10;}
</style>
<g>
	<path class="st0" d="M0.8,6.4c0-1.2,0.1-2.3,0.4-3.4c0.1-0.5,0.3-0.9,0.6-1.2c0.6-0.6,1.5-0.6,2.3-0.6c4.7,0,9.5-0.6,14.2-0.4
		C23.6,1,28.9,1.2,34.1,1.4c3,0.1,5.9-0.4,8.9-0.4c3.5,0,7,0.1,10.4,0.4c0.3,0,0.7,0.1,1,0.2c0.6,0.4,0.7,1.2,0.7,1.9
		c0.1,3.6-0.1,7,0.1,10.5c0.3,4,0,7.9-0.5,11.9c-0.1,1-0.3,2.1-1,2.9c-0.6,0.6-1.4,1-2.2,1.2c-2.2,0.6-4.5,0.6-6.8,0.5
		c-2.3,0-4.7-0.1-7-0.1c-2.3,0-3.6-0.2-4.7-2.3c-1.1-2.1-2.1-4.2-3-6.4c-0.4-1-1.1-2.2-2.2-2.2c-1.2,0.1-1.7,1.5-2,2.6
		c-0.6,2.3-1.4,4.5-2.4,6.6c-0.3,0.5-0.6,1.1-1.1,1.4c-0.5,0.3-1.1,0.3-1.6,0.4c-5.6,0.3-11.1,0.2-16.7-0.2
		c-0.7-0.1-1.5-0.1-2.1-0.6c-1-0.7-1.1-2.1-1.1-3.3C0.9,20.4,0.8,14.3,0.8,8.2C0.8,7.6,0.7,7,0.8,6.4z"/>
	<g>
		<path class="st0" d="M10.8,9.7c-1.6,0.8-2.8,2.3-3.3,4.1C7,15.1,7,16.6,7.6,17.7c0.4,0.8,1,1.4,1.7,1.9c1.9,1.4,4.1,2.4,6.4,2.1
			c1.2-0.2,2.4-0.7,3.4-1.4c0.6-0.4,1.2-0.9,1.7-1.6c1-1.6,0.6-3.7,0.2-5.5C19.9,8.6,14.3,7.8,10.8,9.7z"/>
		<path class="st0" d="M39.1,9c-0.7,0.3-1.3,0.7-1.9,1.2c-0.4,0.3-0.7,0.6-1,1.1c-0.3,0.5-0.4,1-0.6,1.5c-0.6,2.1-0.5,4.2,0.8,6.1
			c1.5,2.1,4.2,3.3,6.8,2.9c1.8-0.3,3.5-1.3,4.5-2.8c0.9-1.3,0.9-2.8,0.9-4.3c0-1.4-0.6-2.9-1.5-4c-1.2-1.4-3-2.2-4.9-2.2
			C41.2,8.3,40.1,8.5,39.1,9z"/>
	</g>
</g>
</svg>
