<svg xmlns="http://www.w3.org/2000/svg" viewBox="0 0 187.1 36.9"><path d="M36.3 18.2h-1.1c-2 0-3.7 1.5-3.7 3.6 0 1.7.5 3.6 2.7 3.6 1.9 0 2.3-1.5 2.3-3.1v-3.8s.1-.3-.2-.3zm58.2 18.7h-4c-2.9-.3-5.4-1.4-5.4-4.1 0-1.9 2.2-3.3 4-3.6 0 0 .5-.1 0-.1-.6-.1-4.1-.4-5.2-.1 0 0-.3 0-.4-.3-.1-.3-.8-2-.9-2.2-.1-.3.1-.4.1-.4 2.6-.4 4.8-1.7 5.9-2 .6-.1 0-.3 0-.3-3.6-.6-7.1-3.1-7.1-7.3 0-6 5-8.7 9.7-8.7 2.2 0 3.4.4 4.6.5 0 0 .1.1.3-.1 0-.4.4-1.4.4-1.4.5-1.5 1.3-2.2 3.6-2.2.5 0 1 0 1.4.1 0 0 .3-.1.3.3-.1.1-.9 3.2-.9 3.3-.1.4-.3.1-.3.1-.6-.1-.7-.2-1.6-.1-.5 0-.8.4-.8.9 0 .9 4.1 2.2 4.1 7 0 6.5-6 7.9-11.2 9.2 0 0-.5.1 0 .1 3.4.4 10.6 1.3 10.6 5.7-.1 3.8-4.3 5.3-7.2 5.7zm-50-10.4h1l.3.3v2c0 .4-.4.3-.4.3h-8.2s-.1 0-.1-.3c-.1-.5-.4-1-.4-1.4-.1-.5-.4 0-.4 0-1.7 1.3-3.6 2.3-5.9 2.3-3.8 0-6.8-2.4-6.8-6.4 0-4.8 3.1-7.5 6.9-7.5l5.9-.3v-.3-.6c0-1.7-.9-2.4-2.8-2.4-2.4 0-3.6.9-4.7 2.3 0 0 0 .1-.3.1-.3-.1-2.3-.9-2.3-.9s-.3 0-.1-.3c.1-.3 2.7-6.4 2.7-6.4s0-.3.1-.1c.4.1 1.9.6 2.3.6.3.3.2.5.2.5s-.1.3-.3.5c-.1.5.1.3.1.3 1.7-.6 3.3-.9 5-.9 4.8 0 8 2 8 7v11.2c.1 0 .1.4.2.4zM45 9.4c3.3-.9 6.1-3.1 7.5-6.1 0 0 0-.1.3-.1s1.9.4 2.2.4c.3.1.1.3.1.3-.1 1-.3 2.2-.3 3.1v1.5l.3.1h3.4c.3 0 .1.3.1.3s-.5 2.6-.5 2.8c-.1.3-.3.3-.3.3h-3v11.9c0 1.4 1.1 1.7 1.8 1.7s.8 0 1.3-.3c0 0 .3-.3.3 0 .1.3.8 1.9.9 2.2.1.1-.1.3-.1.3-2.7 1.9-2.9 2-6.5 2-4 0-5.4-1.9-5.4-5.5V12s0-.1-.3-.1H45s-.1 0-.1-.3V9.7c0-.1.1-.3.1-.3zm58.2 9.3c0-6.6 5.2-10.8 12.1-10.8s12.2 4.2 12.2 10.8c0 6.9-5.4 11-12.2 11s-12.1-4.1-12.1-11zm7.9-2.9c0 3.1 1.3 10.7 5.6 10.7 2.3 0 2.9-2.4 2.9-4.7 0-3.1-1.3-10.7-5.7-10.7-2.8 0-2.8 3.2-2.8 4.7zm40.7 13.3H141s-.1 0-.1-.1v-2.2c0-.3.3-.3.3-.3h1.3c.1 0 .1-.1.1-.1V14.8c0-1.3-1.1-1.8-2.3-1.8-1.4 0-2.4.6-3.4 1.5 0 0-.1.1-.1.3v11.6s0 .1.1.1h1.4s.1 0 .1.3V29c0 .1-.1.1-.1.1h-10.7s-.1.1-.1-.3v-2c0-.3.1-.3.1-.3h1.1c.3 0 .1-.1.1-.1V12.8s.1-.3-.1-.3c-.4.1-1.1.4-1.1.4s-.1.1-.1-.1v-2.2l.1-.1 9.1-2.4s.3-.1.3.1v2.9c0 .4.1.1.1.1 2.2-1.7 4.3-3.3 7.3-3.3 5.5 0 6.2 3.7 6.2 6v12.5s-.1.1.1.1h1.1s.1 0 .1.3v2c0 .4-.1.3-.1.3zM162.6 8l-9.1 2.4s-.1 0-.1.3v2l.3.1s.6-.1 1.1-.3c.3 0 .1.3.1.4v13.4s.1.1-.1.1h-1.3s-.3 0-.3.3v2.2c0 .3.3.1.3.1h10.6c.3 0 .1-.3.1-.3v-2c0-.3-.3-.3-.3-.3h-1c-.3 0-.1-.1-.1-.1V8.1l-.2-.1zm-3.2-6.3c1.8 0 3.8.5 3.8 2.7 0 2.6-3.4 3.6-5.6 3.6-1.8 0-2.9-.9-2.9-2.7 0-2.1 2.8-3.6 4.7-3.6zM71.8 18.2h-1c-2.2 0-3.7 1.5-3.7 3.6 0 1.7.5 3.6 2.6 3.6s2.4-1.5 2.4-3.1v-3.8s0-.3-.3-.3zm8.3 8.3h.9c.4 0 .4.3.4.3v2c0 .4-.4.3-.4.3h-8.2s-.1 0-.3-.3c-.1-.5-.3-1-.3-1.4-.1-.5-.4 0-.4 0-1.8 1.3-3.6 2.3-5.9 2.3-4 0-6.9-2.4-6.9-6.4 0-4.8 3.2-7.7 7-7.7l5.7-.1s.1 0 .1-.3v-.6c0-1.7-.9-2.4-2.8-2.4-2.4 0-3.6.9-4.7 2.3 0 0-.1.1-.3 0-.3 0-2.4-.8-2.4-.8s-.1 0 0-.3S64.2 7 64.2 7s0-.3.3-.1c.3.1 1.9.6 2.2.6.4.3.3.5.3.5s0 .3-.1.5c-.3.6.1.3.1.3 1.7-.6 3.3-.9 5-.9 4.8 0 8 2 8 7v11.2s-.2.4.1.4zm8.4-13.1c0 2.3 1.3 8.5 4.5 8.5 1.7 0 2.3-.8 2.3-2.8 0-2.3-1.4-8.5-4.6-8.5-1.6 0-2.2.8-2.2 2.8zm3.3 16.7c-.4.4-.6 1.8-.6 2.7 0 1 .5 2.2 1.8 2.2 1 0 1.7-.5 1.7-1.5 0-1.9-1.1-2.6-2.6-3.4 0-.1-.2-.1-.3 0zm85.1-11.9h-1c-2.2 0-3.7 1.5-3.7 3.6 0 1.7.5 3.6 2.6 3.6 2 0 2.4-1.5 2.4-3.1v-3.8c-.1 0-.1-.3-.3-.3zm8.3 8.3h1c.3 0 .3.3.3.3v2c0 .4-.4.3-.4.3h-8.2s-.1 0-.3-.3c-.1-.5-.3-1-.3-1.4-.1-.5-.4 0-.4 0-1.8 1.3-3.6 2.3-5.9 2.3-4 0-6.9-2.4-6.9-6.4 0-4.8 3.2-7.7 7-7.7l5.7-.1s.1 0 .1-.3v-.6c0-1.7-.9-2.4-2.8-2.4-2.4 0-3.6.9-4.7 2.3 0 0-.1.1-.3 0-.3 0-2.3-.8-2.3-.8s-.3 0-.1-.3c.1-.3 2.6-6.4 2.6-6.4s0-.3.3-.1 1.9.6 2.2.6c.3.1.3.4.3.4s-.1.3-.3.5c-.3.5.1.3.1.3 1.7-.6 3.3-.9 5-.9 4.8 0 8 2 8 7V26c.1.1.1.5.3.5zM9.4 12.9v10.3c0 1.8.6 3.3 2.7 3.3 2.6 0 3.7-1.5 3.7-6.2 0-7.5-3.8-7.9-5.1-7.9l-1 .1s-.3.1-.3.4zm.2-3.1c1.9-1.1 3.3-1.9 5.2-1.9 5 0 8.9 4.1 8.9 10.1 0 5.9-3.7 11.7-10.1 11.7-1.3 0-2.9-.1-4.1-.8 0 0-.1 0-.1.1v3.7s0 .3.3.3H12s.3 0 .3.3v2c0 .1-.3.3-.3.3H.4s-.4 0-.4-.3C0 33 .3 33 .3 33h1l.3-.3v-20l-.3-.1-1 .3s-.3 0-.3-.3.3-.3.3-.3L9.2 8s.3-.1.3.1v1.5c-.1.3.1.2.1.2zM181.5 2.8c0-1.5 1.3-2.8 2.8-2.8s2.8 1.3 2.8 2.8c0 1.7-1.3 2.9-2.8 2.9-1.5 0-2.8-1.2-2.8-2.9zm5.2 0c0-1.3-1-2.4-2.4-2.4s-2.6 1.1-2.6 2.4c0 1.4 1.1 2.6 2.6 2.6 1.4 0 2.4-1.2 2.4-2.6zm-1 1.7h-.5l-.9-1.5h-.6v1.5h-.4V1.3h1.3c.3 0 .6 0 .8.1.3.1.4.5.4.8 0 .5-.4.8-1 .8l.9 1.5zm-1.5-1.8c.5 0 1.1.1 1.1-.5 0-.5-.4-.6-.8-.6h-.9v1.1h.6z" fill="#fff" /></svg>