<?xml version="1.0" encoding="utf-8"?>
<!-- Generator: Adobe Illustrator 23.0.3, SVG Export Plug-In . SVG Version: 6.00 Build 0)  -->
<svg version="1.1" id="Layer_1" xmlns="http://www.w3.org/2000/svg" xmlns:xlink="http://www.w3.org/1999/xlink" x="0px" y="0px"
	 viewBox="0 0 150 150" style="enable-background:new 0 0 150 150;" xml:space="preserve">
<style type="text/css">
	.st0{fill:none;stroke:#FFFFFF;stroke-width:6.71;stroke-miterlimit:10;}
	.st1{fill:none;stroke:#EF4923;stroke-width:10;stroke-linecap:round;stroke-linejoin:round;}
</style>
<path class="st0" d="M63.8,49.4c3.2-1.5,6.5-2.5,10-3c3.9-0.4,7.9,0.5,11.7,1.4c4.4,0.9,8.8,2.2,13,3.8c4.9,2.1,9.4,5.2,13.8,8.3
	c2.8,2,13.5,8.8,11.5,13.1c-0.4,0.7-0.9,1.3-1.6,1.8c-12.6,10.1-29.9,18.6-46.3,18.7s-32-7.7-44.3-18.6c-0.3-0.2-0.5-0.5-0.6-0.9
	c0-0.3,0.1-0.6,0.2-0.8c1.7-3.3,4.4-5,6.9-7.4c2.5-2.4,4.9-5.1,8-7.2C51.7,55,57.6,51.9,63.8,49.4L63.8,49.4z"/>
<path class="st0" d="M120.7,59.1c-2-3.9-4.5-7.6-7.3-11c-6.2-6.8-15.3-10.3-24-13.4c-4.1-1.7-8.5-2.8-12.9-3.5
	c-4.9-0.5-9.9,0.2-14.9,0.9c-5,0.7-9.5,1.4-13.6,3.8s-7,6.1-9.6,9.9c-5.4,8-9.8,16.9-10.9,26.5s1.3,19.9,7.9,26.9s16.1,10,25.1,12.9
	s18.7,6.2,28,4c4.3-1,8.2-3.2,12.1-5.4s9.5-5.5,13.1-9.7s4.9-7.6,6.8-11.6s5.2-11,5.1-16.8S123.1,63.2,120.7,59.1z"/>
<path class="st0" d="M138.4,69.5c-0.3-4.7-1-9.3-2-13.9c-3-12.6-10.8-23.4-21.7-30.3c-9.2-5.7-19.6-9.1-30.4-9.9
	C78.2,14.9,72,15.3,66,16.6c-9.4,2-18.2,6.1-26.5,10.7c-3.5,1.8-6.7,4-9.7,6.5c-3.2,3-5.9,6.4-8.1,10.1c-7.2,11.2-12.4,24.5-10,37.6
	c1.3,6.7,4.5,13,7.8,19.1c3,5.6,6.4,11,10.3,16c5.7,7,13,10,21,14.3c5.1,3,10.9,4.7,16.8,5.2c5.9,0.3,11.6,1.6,17.2-0.3
	c9-3,17.8-6.8,26.2-11.2c6.8-3.6,13.4-7.7,18.3-13.5C139.6,98.9,139.9,84.7,138.4,69.5L138.4,69.5z"/>
<path class="st0" d="M61.5,50.4c-1.9,1.6-3.3,5-3.4,7.8c-0.1,2.9,0.2,5.7,0.8,8.5c0.6,2.9,1.4,5.9,3,8.1c1.7,2.1,4.1,3.5,6.8,4
	c3.1,0.8,6.2,1.2,9.4,1.4c4.4,0.3,8.9,0,12.9-2.5c4.6-3.1,7.3-8.3,7.4-13.8c0.2-5-1.3-9.9-4.3-13.9"/>
<path class="st1" d="M69,10.3c-9.4,2-24.2,7.4-32.5,12c-3.5,1.8-6.7,4-9.7,6.5c-3.2,3-5.9,6.4-8.1,10.1c-5.4,8.4-9.6,17.9-10.4,27.6
	"/>
</svg>
