<?xml version="1.0" encoding="utf-8"?>
<!-- Generator: Adobe Illustrator 23.0.3, SVG Export Plug-In . SVG Version: 6.00 Build 0)  -->
<svg version="1.1" id="Layer_1" xmlns="http://www.w3.org/2000/svg" xmlns:xlink="http://www.w3.org/1999/xlink" x="0px" y="0px"
	 viewBox="0 0 150 150" style="enable-background:new 0 0 150 150;" xml:space="preserve">
<style type="text/css">
	.st0{fill:none;stroke:#FFFFFF;stroke-width:6.71;stroke-miterlimit:10;}
	.st1{fill:none;stroke:#00B0CB;stroke-width:10;stroke-linecap:round;stroke-linejoin:round;}
</style>
<path class="st0" d="M138.4,69.5c-0.3-4.7-1-9.3-2-13.9c-3-12.6-10.8-23.4-21.7-30.3c-9.2-5.7-19.6-9.1-30.4-9.9
	C78.2,14.9,72,15.3,66,16.6c-9.4,2-18.2,6.1-26.5,10.7c-3.5,1.8-6.7,4-9.7,6.5c-3.2,3-5.9,6.4-8.1,10.1c-7.2,11.2-12.4,24.5-10,37.6
	c1.3,6.7,4.5,13,7.8,19.1c3,5.6,6.4,11,10.3,16c5.7,7,13,10,21,14.3c5.1,3,10.9,4.7,16.8,5.2c5.9,0.3,11.6,1.6,17.2-0.3
	c9-3,17.8-6.8,26.2-11.2c6.8-3.6,13.4-7.7,18.3-13.5C139.6,98.9,139.9,84.7,138.4,69.5L138.4,69.5z"/>
<path class="st0" d="M57.3,36.1c-2.3-0.3-4.7,0.1-6.8,1.1c-2,1.2-3.8,3-5,5c-1.5,1.9-2.6,4.1-3.2,6.5c-0.8,4.5,1.9,9.1,5.8,11.4
	c4,2.2,8.7,2.8,13.1,1.8c1.2-0.2,2.5-0.6,3.6-1.1c2.9-1.5,4.7-4.7,5.4-8C72.3,43.7,66.4,36.7,57.3,36.1z M80.4,36.4
	c-2.8,2-4.9,4.8-6,8C73.2,47.6,73,51,74,54.3c2.1,6.1,8,10,14.4,9.5c6.3-0.8,11.5-5.3,13.1-11.5c1.4-6-1.1-11.7-5.2-16
	S84.8,33.3,80.4,36.4z"/>
<path class="st0" d="M48,63.2c-2.8,0.1-6.1,0.5-7.4,3.2c-1.3,2.7-0.1,7.4-0.2,10.9c-0.2,4.7-0.1,9.5,0.4,14.2c0,1.4,0.5,2.7,1.4,3.7
	c1,0.8,2.3,1.1,3.6,0.8c16.8-0.6,33.6-0.6,50.5,0c2.3,0.1,5,0,6.5-2s1-2.8,1.1-4.4c0.5-6.9,0.6-13.9,0.4-20.8
	c-0.1-1.7-0.3-3.7-1.6-4.7c-0.9-0.5-1.9-0.7-2.9-0.6c-9.2,0-18.3,0.2-27.5,0.1S56.1,63,48,63.2z"/>
<path class="st0" d="M103.9,72.3l6.6-6.3c1.7-1.5,3.5-3,5.5-2.7c0.5,0,1,0.2,1.3,0.6c0.4,0.7,0.6,1.6,0.6,2.4
	c0.6,9.1,0.8,18.3,0.6,27.5c0,0.5-0.1,1-0.2,1.5c-0.6,1.6-2.4,1.2-3.7,0.6c-3.9-2-7.6-4.2-11.1-6.7 M62.8,95.3
	c-3.3,9.2-6.3,16.5-10.4,25.4 M72.6,96.6l-0.7,27.5 M82.8,95.5c2.9,8.3,6.6,17.2,9.8,25.2 M65.4,86.9c0,0.6,0.1,1.4,0.7,1.6
	c0.4,0.1,0.8,0,1.1-0.2c4.6-2.2,9.1-4.7,13.4-7.5c0.4-0.2,0.7-0.5,0.9-0.9c0.4-0.9-0.5-1.9-1.4-2.4c-2.1-1.4-4.3-2.6-6.6-3.7
	c-2-1.1-4.1-2.1-6.3-2.9c-0.5-0.2-1-0.1-1.4,0.1c-1.3,1-0.5,5.3-0.5,6.8S65.4,83.8,65.4,86.9z"/>
<path class="st1" d="M69,10.3c-9.4,2-24.2,7.4-32.5,12c-3.5,1.8-6.7,4-9.7,6.5c-3.2,3-5.9,6.4-8.1,10.1c-5.4,8.4-9.6,17.9-10.4,27.6
	"/>
</svg>
