<?xml version="1.0" encoding="utf-8"?>
<!-- Generator: Adobe Illustrator 23.0.3, SVG Export Plug-In . SVG Version: 6.00 Build 0)  -->
<svg version="1.1" id="Layer_1" xmlns="http://www.w3.org/2000/svg" xmlns:xlink="http://www.w3.org/1999/xlink" x="0px" y="0px"
	 viewBox="0 0 150 150" style="enable-background:new 0 0 150 150;" xml:space="preserve">
<style type="text/css">
	.st0{fill:none;stroke:#FFFFFF;stroke-width:6.71;stroke-miterlimit:10;}
	.st1{fill:none;stroke:#EF4923;stroke-width:10;stroke-linecap:round;stroke-linejoin:round;}
</style>
<path class="st0" d="M138.4,69.5c-0.3-4.7-1-9.3-2-13.9c-3-12.6-10.8-23.4-21.7-30.3c-9.2-5.7-19.6-9.1-30.4-9.9
	C78.2,14.9,72,15.3,66,16.6c-9.4,2-18.2,6.1-26.5,10.7c-3.5,1.8-6.7,4-9.7,6.5c-3.2,3-5.9,6.4-8.1,10.1c-7.2,11.2-12.4,24.5-10,37.6
	c1.3,6.7,4.5,13,7.8,19.1c3,5.6,6.4,11,10.3,16c5.7,7,13,10,21,14.3c5.1,3,10.9,4.7,16.8,5.2c5.9,0.3,11.6,1.6,17.2-0.3
	c9-3,17.8-6.8,26.2-11.2c6.8-3.6,13.4-7.7,18.3-13.5C139.6,98.9,139.9,84.7,138.4,69.5L138.4,69.5z"/>
<path class="st0" d="M63.8,82.5c-4.6,0.5-6.6,0.1-11.2-0.5c-1.1,0-2.2-0.4-3-1.1c-0.7-0.9-1-2.1-0.9-3.2c0-2.6,0.2-5.2,0.4-7.8
	l1.5-17.4c0-0.5,0.2-1,0.5-1.4c0.4-0.3,0.9-0.5,1.4-0.5c3.1-0.3,6.2,0.3,9.4,0.2c3.1-0.3,6.3-0.4,9.4-0.3 M59.8,39
	c-1.8,0.5-3.3,1.8-4.1,3.6c-0.3,0.5-0.4,1.1-0.5,1.7c0,1.1,0.3,2.2,0.8,3.2c0.2,0.8,0.7,1.5,1.4,1.9l1.2,0.4
	c1.2,0.3,2.5,0.4,3.7,0.3c1.2-0.1,2.3-0.8,3-1.8c1.1-1.8,0.4-5.6-0.5-7.5S61.6,38.6,59.8,39z"/>
<path class="st0" d="M80.8,83.4c0.3-9,0.3-17.9-0.2-26.9c0-1.5-0.3-2.9-1-4.2c-1.1-1.1-2.6-1.7-4.1-1.5c-2.4,0-4.8,0.7-6.9,2
	c-2.4,1.5-4.1,3.7-4.9,6.4c-0.5,1.8-0.7,3.7-0.8,5.6c-0.2,4.1-2.6,16.1,0.8,17.8C65.2,83.2,79.7,83.4,80.8,83.4z M78.7,51.4
	c2.8,1.5,5.4,3.3,7.8,5.4c1,1,2.2,1.9,3.3,2.8c1.9,1.4,4.6,1.3,6.4-0.2c3-2.5,5.8-5.3,8.3-8.3"/>
<path class="st0" d="M67.9,39c-1,1.7-1.9,3.6-1.7,5.5s3.2,5.4,6.3,6c1.3,0.3,2.7,0.2,3.9-0.5c1-0.8,1.7-1.9,2.1-3.1
	c1.3-3.5,2.6-8.9-0.8-11.9S69.8,35.9,67.9,39z M35.8,122.2h27.7c0.6,0.1,1.3-0.1,1.8-0.4c0.4-0.4,0.7-0.9,0.8-1.4l4.3-13.3
	c0.2-0.8,0.6-1.5,1.1-2.1c0.8-0.6,1.9-0.9,2.9-0.8c5.2-0.5,10.6-1.2,15.8-1.4c7.5-0.3,14.8-1,22.2-1.4 M104.9,32.4
	c-0.2,7.5-0.7,11.6-0.4,18.6s-0.2,42.4,0.2,50.7 M62.6,81.2c-2.6,13.7-4.3,27.6-5.1,41.6"/>
<path class="st0" d="M80.8,83.4c3.3,2.1,5.6,3,6.6,3.9c-2.3,5.3-4.2,10.7-5.9,16.2"/>
<path class="st1" d="M69,10.3c-9.4,2-24.2,7.4-32.5,12c-3.5,1.8-6.7,4-9.7,6.5c-3.2,3-5.9,6.4-8.1,10.1c-5.4,8.4-9.6,17.9-10.4,27.6
	"/>
</svg>
