<svg xmlns="http://www.w3.org/2000/svg" height="125" viewBox="0 0 125 125" width="125"><path fill="none" stroke="#fff" stroke-width="6.71" stroke-miterlimit="10" d="M48.7 68.4c-6 .6-8.7.1-14.7-.6a6.2 6.2 0 0 1-3.9-1.4 6.1 6.1 0 0 1-1.2-4.2c0-3.4.3-6.8.5-10.2l2-23a3.1 3.1 0 0 1 .6-1.9 3.1 3.1 0 0 1 1.9-.6c4.1-.4 8.2.4 12.3.2a102.8 102.8 0 0 1 12.4-.4m-15.1-15a8.4 8.4 0 0 0-5.4 4.7 7.9 7.9 0 0 0-.6 2.2 8.8 8.8 0 0 0 1.1 4.2 5.1 5.1 0 0 0 1.8 2.5 4.3 4.3 0 0 0 1.6.5 15.6 15.6 0 0 0 4.8.4 5.5 5.5 0 0 0 4-2.4c1.4-2.4.5-7.4-.6-9.8s-4.3-2.9-6.7-2.3z"/><path fill="none" stroke="#fff" stroke-width="6.71" stroke-miterlimit="10" d="M71.1 69.6c.4-11.8.4-23.6-.2-35.4a10.9 10.9 0 0 0-1.3-5.5c-1-1.5-3.4-2.1-5.4-2a17.2 17.2 0 0 0-9.1 2.6 15.2 15.2 0 0 0-6.5 8.4 29.9 29.9 0 0 0-1 7.3c-.3 5.4-3.4 21.2 1.1 23.4 1.9.9 21 1.2 22.4 1.2zm-2.7-42a56.3 56.3 0 0 1 10.2 7.1 50.7 50.7 0 0 0 4.4 3.7 6.9 6.9 0 0 0 8.4-.3 93.5 93.5 0 0 0 10.9-10.9"/><path fill="none" stroke="#fff" stroke-width="6.71" stroke-miterlimit="10" d="M54.1 11.3c-1.3 2.2-2.5 4.7-2.3 7.2s4.2 7.1 8.3 7.9a7.5 7.5 0 0 0 5.1-.6 8.4 8.4 0 0 0 2.8-4.1c1.7-4.6 3.4-11.7-1-15.6s-10.4 1.1-12.9 5.2zM11.9 120.6h36.5a4 4 0 0 0 2.4-.5 3.2 3.2 0 0 0 1-1.8l5.7-17.5a5.6 5.6 0 0 1 1.5-2.7 6.3 6.3 0 0 1 3.8-1.1c6.9-.6 13.9-1.6 20.8-1.8 9.8-.4 19.4-1.3 29.2-1.8m-10-90.8c-.3 9.8-.9 15.3-.5 24.5.5 10.9-.2 55.7.2 66.7M47.2 66.7a436.9 436.9 0 0 0-6.7 54.7"/><path fill="none" stroke="#fff" stroke-width="6.71" stroke-miterlimit="10" d="M71.1 69.6c4.3 2.7 7.3 3.9 8.7 5.1a182 182 0 0 0-7.7 21.4"/></svg>