<?xml version="1.0" encoding="utf-8"?>
<!-- Generator: Adobe Illustrator 23.0.1, SVG Export Plug-In . SVG Version: 6.00 Build 0)  -->
<svg version="1.1" id="Layer_1" xmlns="http://www.w3.org/2000/svg" xmlns:xlink="http://www.w3.org/1999/xlink" x="0px" y="0px"
	 viewBox="0 0 72.9 72.6" style="enable-background:new 0 0 72.9 72.6;" xml:space="preserve">
<style type="text/css">
	.st0{fill:#FFFFFF;}
</style>
<g>
	<path class="st0" d="M62.3,52.2c4.4,1.7,7,3.9,7,6.2c0,5.6-14.7,10.1-32.8,10.1S3.6,64,3.6,58.5c0-2.4,2.6-4.5,7-6.2
		C9.6,53,9,53.7,9,54.5c0,3.8,12.3,6.9,27.5,6.9c15.2,0,27.5-3.1,27.5-6.9C63.9,53.7,63.4,53,62.3,52.2L62.3,52.2z M46.6,40.5v15.7
		h4.2l1.7-11l1.7,11h4.6V38.9c1.8-0.9,3.1-2.8,3.1-5v-8.9c0-3.1-2.5-5.7-5.7-5.7h-7c-0.4,0-0.9,0.1-1.3,0.2c0.9,1.4,1.5,3.1,1.5,4.9
		V34C49.3,36.5,48.3,38.9,46.6,40.5L46.6,40.5z M43,39.5c2-1,3.4-3.1,3.4-5.5v-9.7c0-3.4-2.8-6.2-6.2-6.2h-7.6
		c-3.4,0-6.2,2.8-6.2,6.2v9.7c0,2.4,1.4,4.4,3.3,5.5v18.9h5l1.8-12l1.8,12H43V39.5L43,39.5z M26.2,40.5c-1.7-1.7-2.7-4-2.7-6.5v-9.7
		c0-1.8,0.5-3.5,1.5-4.9c-0.4-0.1-0.9-0.2-1.3-0.2h-7c-3.1,0-5.7,2.6-5.7,5.7v8.9c0,2.2,1.2,4.1,3.1,5v17.4h4.6l1.7-11l1.7,11h4.2
		V40.5L26.2,40.5z"/>
</g>
<circle class="st0" cx="20.3" cy="12.2" r="6"/>
<circle class="st0" cx="52.5" cy="12.2" r="6"/>
<circle class="st0" cx="36.6" cy="10.5" r="6.5"/>
</svg>
