<?xml version="1.0" encoding="utf-8"?>
<!-- Generator: Adobe Illustrator 23.0.3, SVG Export Plug-In . SVG Version: 6.00 Build 0)  -->
<svg version="1.1" id="Layer_1" xmlns="http://www.w3.org/2000/svg" xmlns:xlink="http://www.w3.org/1999/xlink" x="0px" y="0px"
	 viewBox="0 0 77.8 16" style="enable-background:new 0 0 77.8 16;" xml:space="preserve">
<style type="text/css">
	.st0{fill:#EEEEEE;}
</style>
<title>arizona</title>
<g>
	<path class="st0" d="M6.6,0.4h2.8l6.7,15.3h-3.8L11,12.5H5l-1.3,3.3H0L6.6,0.4z M7.9,4.9L6.1,9.6h3.8L7.9,4.9z"/>
	<path class="st0" d="M17.2,5.2h3.3v1.7l0,0c0.3-0.6,0.7-1.1,1.2-1.5c0.5-0.3,1.2-0.5,1.8-0.5h0.6c0.2,0,0.4,0,0.5,0.1v3
		c-0.2,0-0.4-0.1-0.6-0.1s-0.5-0.1-0.7-0.1c-0.5,0-1,0.1-1.5,0.3c-0.3,0.2-0.6,0.4-0.8,0.7c-0.2,0.3-0.3,0.7-0.4,1.1
		c-0.1,0.5-0.1,0.9-0.1,1.4v4.4h-3.3V5.2z"/>
	<path class="st0" d="M25.8,1.9c0-0.5,0.2-1,0.6-1.3C26.7,0.2,27.2,0,27.7,0c0.5,0,1,0.2,1.3,0.6c0.4,0.3,0.6,0.8,0.6,1.3
		c0,0.5-0.2,1-0.6,1.3c-0.3,0.4-0.8,0.6-1.3,0.6c-0.5,0-1-0.2-1.3-0.6C26,2.9,25.8,2.4,25.8,1.9z M26.1,5.2h3.3v10.5h-3.3L26.1,5.2z
		"/>
	<path class="st0" d="M31.3,12.5l5.5-4.7h-5.3V5.2h9.1v3.1l-5.7,4.8h5.9v2.6h-9.4v-3.2H31.3z"/>
	<path class="st0" d="M42.1,10.5c0-0.8,0.2-1.6,0.5-2.3c0.3-0.7,0.7-1.2,1.2-1.7C44.4,6,45,5.6,45.7,5.3c1.5-0.5,3.1-0.5,4.6,0
		C51,5.6,51.6,6,52.2,6.5c0.5,0.5,0.9,1.1,1.2,1.7c0.3,0.7,0.5,1.5,0.5,2.3c0,0.8-0.2,1.6-0.5,2.3c-0.3,0.7-0.7,1.2-1.2,1.7
		c-0.5,0.5-1.2,0.9-1.9,1.1c-1.5,0.5-3.1,0.5-4.6,0c-0.7-0.3-1.3-0.6-1.9-1.1c-0.5-0.5-0.9-1.1-1.2-1.7
		C42.3,12.1,42.1,11.3,42.1,10.5z M45.4,10.5c-0.1,1.3,0.9,2.5,2.2,2.6c0.1,0,0.2,0,0.4,0c0.7,0.1,1.4-0.2,1.9-0.7
		c0.5-0.5,0.7-1.2,0.7-1.9c0.1-1.3-0.9-2.5-2.2-2.6c-0.1,0-0.2,0-0.4,0c-1.3-0.1-2.5,0.9-2.6,2.2C45.4,10.3,45.4,10.4,45.4,10.5z"/>
	<path class="st0" d="M55.8,5.2h3.1v1.4l0,0C59,6.4,59.2,6.2,59.4,6c0.2-0.2,0.4-0.4,0.7-0.5c0.3-0.2,0.6-0.3,0.9-0.4
		c0.3-0.1,0.7-0.2,1-0.2c0.7,0,1.4,0.1,2,0.4c0.5,0.3,0.9,0.6,1.2,1.1c0.3,0.5,0.5,1,0.6,1.6c0.1,0.7,0.2,1.3,0.2,2v5.8h-3.3V9.7
		c0-0.3-0.1-0.6-0.2-0.9c-0.1-0.3-0.3-0.5-0.5-0.7c-0.3-0.2-0.6-0.3-1-0.3c-0.3,0-0.7,0.1-1,0.2c-0.2,0.1-0.5,0.4-0.6,0.6
		c-0.1,0.3-0.2,0.6-0.3,0.9c0,0.3-0.1,0.7-0.1,1v5.2h-3.3L55.8,5.2L55.8,5.2z"/>
	<path class="st0" d="M74.8,14.4L74.8,14.4c-0.3,0.6-0.9,1-1.5,1.2c-1,0.5-2.2,0.5-3.3,0.2c-0.5-0.1-0.9-0.3-1.2-0.6
		c-0.3-0.3-0.6-0.6-0.8-1c-0.2-0.4-0.3-0.9-0.3-1.4c0-0.5,0.1-1,0.3-1.5c0.2-0.4,0.5-0.8,0.9-1c0.4-0.3,0.8-0.5,1.3-0.6
		c0.5-0.2,1-0.3,1.5-0.3c0.5-0.1,1.1-0.1,1.6-0.1h1.5c0-0.5-0.2-1-0.6-1.4c-0.4-0.3-1-0.5-1.5-0.5c-0.5,0-1,0.1-1.5,0.3
		c-0.4,0.2-0.9,0.5-1.2,0.9l-1.7-1.8c0.6-0.6,1.3-1,2.1-1.3c0.8-0.3,1.6-0.4,2.5-0.4c0.8,0,1.6,0.1,2.4,0.4c0.6,0.2,1.1,0.6,1.5,1.1
		c0.4,0.5,0.7,1.1,0.8,1.7c0.2,0.8,0.2,1.5,0.2,2.3V16h-3V14.4z M74,11.1h-0.9c-0.4,0-0.7,0.1-1.1,0.2c-0.3,0.1-0.6,0.3-0.9,0.5
		c-0.2,0.2-0.4,0.5-0.4,0.8c0,0.4,0.2,0.7,0.5,0.9c0.3,0.2,0.6,0.3,1,0.3c0.3,0,0.6,0,0.9-0.1c0.3-0.1,0.6-0.2,0.8-0.4l0.6-0.6
		c0.1-0.3,0.2-0.6,0.2-0.9v-0.7H74z"/>
</g>
</svg>
