<?xml version="1.0" encoding="utf-8"?>
<!-- Generator: Adobe Illustrator 23.0.3, SVG Export Plug-In . SVG Version: 6.00 Build 0)  -->
<svg version="1.1" id="Layer_1" xmlns="http://www.w3.org/2000/svg" xmlns:xlink="http://www.w3.org/1999/xlink" x="0px" y="0px"
	 viewBox="0 0 88.5 16" style="enable-background:new 0 0 88.5 16;" xml:space="preserve">
<style type="text/css">
	.st0{fill:#EEEEEE;}
</style>
<title>colorado</title>
<g>
	<path class="st0" d="M10.4,4.8c-0.3-0.4-0.8-0.7-1.2-0.9C8.7,3.7,8.1,3.6,7.6,3.6C7,3.6,6.4,3.7,5.9,3.9c-0.5,0.2-1,0.6-1.3,1
		c-0.4,0.5-0.7,1-0.9,1.5C3.5,7,3.3,7.6,3.3,8.3c0,0.6,0.1,1.3,0.3,1.9c0.2,0.6,0.5,1.1,0.9,1.5c0.4,0.4,0.8,0.7,1.3,1
		c0.5,0.2,1,0.4,1.6,0.4c0.6,0,1.2-0.1,1.8-0.4c0.5-0.3,0.9-0.7,1.3-1.2l2.7,2c-0.6,0.9-1.4,1.5-2.4,1.9C9.9,15.8,8.9,16,7.9,16
		c-1.1,0-2.2-0.2-3.2-0.5c-0.9-0.3-1.8-0.8-2.5-1.5c-0.7-0.7-1.3-1.5-1.6-2.4C0.2,10.6,0,9.5,0,8.4c0-1.1,0.2-2.2,0.6-3.2
		c0.3-0.9,0.9-1.7,1.6-2.4c0.7-0.7,1.5-1.3,2.5-1.6c1-0.4,2.1-0.5,3.2-0.5c0.4,0,0.9,0,1.3,0.1c0.4,0.1,0.9,0.2,1.3,0.4
		c0.5,0.2,0.9,0.4,1.3,0.7c0.4,0.3,0.8,0.6,1.1,1L10.4,4.8z"/>
	<path class="st0" d="M14.2,10.6c0-0.8,0.1-1.5,0.4-2.2c0.3-0.6,0.7-1.2,1.2-1.7c0.5-0.5,1.1-0.9,1.8-1.1c0.7-0.2,1.5-0.4,2.2-0.4
		c0.8,0,1.5,0.1,2.2,0.4c0.7,0.2,1.3,0.6,1.8,1.1c0.5,0.5,0.9,1.1,1.2,1.7c0.3,0.7,0.4,1.4,0.4,2.2c0,0.8-0.1,1.5-0.4,2.2
		c-0.3,0.6-0.7,1.2-1.2,1.7c-0.5,0.5-1.1,0.9-1.8,1.1c-0.7,0.2-1.5,0.4-2.2,0.4c-0.8,0-1.5-0.1-2.2-0.4c-0.7-0.2-1.3-0.6-1.8-1.1
		c-0.5-0.5-0.9-1.1-1.2-1.7C14.3,12.1,14.2,11.4,14.2,10.6z M17.3,10.6c-0.1,0.7,0.2,1.3,0.7,1.8c0.5,0.5,1.1,0.8,1.8,0.7
		c0.7,0.1,1.3-0.2,1.8-0.7c0.4-0.5,0.7-1.1,0.7-1.8c0.1-0.7-0.2-1.3-0.7-1.8c-0.5-0.5-1.1-0.8-1.8-0.7C19.1,8,18.5,8.3,18,8.8
		C17.5,9.3,17.2,9.9,17.3,10.6z"/>
	<path class="st0" d="M27.2,0h3.1v15.6h-3.1V0z"/>
	<path class="st0" d="M32.2,10.6c0-0.8,0.1-1.5,0.4-2.2c0.3-0.6,0.7-1.2,1.2-1.7c0.5-0.5,1.1-0.9,1.8-1.1c0.7-0.2,1.5-0.4,2.2-0.4
		c0.8,0,1.5,0.1,2.2,0.4c0.7,0.2,1.3,0.6,1.8,1.1c0.5,0.5,0.9,1.1,1.2,1.7c0.3,0.7,0.4,1.4,0.4,2.2c0,0.8-0.1,1.5-0.4,2.2
		c-0.3,0.6-0.7,1.2-1.2,1.7c-0.5,0.5-1.1,0.9-1.8,1.1c-0.7,0.2-1.5,0.4-2.2,0.4c-0.8,0-1.5-0.1-2.2-0.4c-0.7-0.2-1.3-0.6-1.8-1.1
		c-0.5-0.5-0.9-1.1-1.2-1.7C32.3,12.1,32.2,11.4,32.2,10.6z M35.3,10.6c-0.1,0.7,0.2,1.3,0.7,1.8c0.5,0.5,1.1,0.8,1.8,0.7
		c0.7,0.1,1.3-0.2,1.8-0.7c0.4-0.5,0.7-1.1,0.7-1.8c0.1-0.7-0.2-1.3-0.7-1.8c-0.5-0.5-1.1-0.8-1.8-0.7C37.1,8,36.5,8.3,36,8.8
		C35.5,9.3,35.2,9.9,35.3,10.6z"/>
	<path class="st0" d="M45.1,5.6h3.1v1.6l0,0c0.3-0.6,0.7-1.1,1.2-1.4c0.5-0.3,1.1-0.5,1.7-0.5h0.5c0.2,0,0.3,0,0.5,0.1v2.8
		c-0.2-0.1-0.5-0.1-0.7-0.2c-0.2,0-0.4-0.1-0.7-0.1c-0.5,0-0.9,0.1-1.4,0.2c-0.3,0.2-0.6,0.4-0.8,0.7c-0.2,0.3-0.3,0.7-0.4,1.1
		C48,10.4,48,10.8,48,11.3v4.2h-3.1V5.6H45.1z"/>
	<path class="st0" d="M59.9,14.4L59.9,14.4c-0.4,0.5-0.8,0.9-1.4,1.2c-0.6,0.2-1.2,0.4-1.8,0.4c-0.5,0-0.9-0.1-1.4-0.2
		c-0.4-0.1-0.8-0.3-1.1-0.6c-0.3-0.3-0.6-0.6-0.8-1c-0.2-0.4-0.3-0.8-0.3-1.3c0-0.5,0.1-1,0.3-1.5c0.2-0.4,0.5-0.7,0.9-1
		c0.4-0.3,0.8-0.5,1.3-0.6c0.5-0.1,1-0.2,1.5-0.3c0.5-0.1,1-0.1,1.5-0.1H60c0-0.5-0.2-1-0.6-1.3C59,7.8,58.5,7.6,58,7.6
		c-0.5,0-1,0.1-1.4,0.3c-0.4,0.2-0.8,0.5-1.1,0.9l-1.7-1.7c0.6-0.5,1.3-0.9,2-1.2c0.8-0.3,1.6-0.4,2.4-0.4c0.7,0,1.5,0.1,2.2,0.3
		c0.6,0.2,1,0.5,1.4,1c0.4,0.4,0.6,1,0.7,1.6c0.1,0.7,0.2,1.5,0.2,2.2v5.1h-2.9v-1.3H59.9z M59.1,11.2h-0.9c-0.3,0-0.7,0.1-1,0.2
		c-0.3,0.1-0.6,0.2-0.8,0.4c-0.2,0.2-0.3,0.5-0.3,0.8c0,0.3,0.2,0.7,0.5,0.8c0.3,0.2,0.6,0.3,1,0.3c0.3,0,0.6,0,0.9-0.1
		c0.3-0.1,0.6-0.2,0.8-0.4c0.2-0.2,0.4-0.3,0.5-0.6c0.1-0.2,0.2-0.5,0.2-0.8v-0.7h-0.9V11.2z"/>
	<path class="st0" d="M75.2,15.6h-2.9v-1.3l0,0c-0.1,0.2-0.3,0.4-0.5,0.5c-0.2,0.2-0.4,0.4-0.7,0.5c-0.3,0.2-0.6,0.3-0.9,0.4
		c-0.3,0.1-0.7,0.1-1,0.1c-0.7,0-1.4-0.1-2-0.4c-0.6-0.3-1.1-0.6-1.6-1.1c-0.5-0.4-0.8-1-1-1.6c-0.2-0.7-0.4-1.4-0.4-2.1
		c0-0.7,0.1-1.4,0.3-2c0.3-0.6,0.6-1.1,1-1.6c0.4-0.5,0.9-0.9,1.4-1.2c0.6-0.3,1.2-0.4,1.9-0.4c0.6,0,1.2,0.1,1.8,0.3
		c0.6,0.2,1,0.5,1.4,1l0,0V0h3.1L75.2,15.6L75.2,15.6z M72.3,10.6c0.1-0.7-0.2-1.3-0.7-1.8c-1-0.9-2.6-0.9-3.6,0
		c-0.4,0.5-0.7,1.1-0.7,1.8c-0.1,0.7,0.2,1.3,0.7,1.8c1,0.9,2.6,0.9,3.6,0C72.1,11.9,72.4,11.3,72.3,10.6z"/>
	<path class="st0" d="M77.3,10.6c0-0.8,0.1-1.5,0.4-2.2c0.3-0.6,0.7-1.2,1.2-1.7c0.6-0.4,1.2-0.7,1.8-1c0.7-0.2,1.5-0.4,2.2-0.4
		c0.8,0,1.5,0.1,2.2,0.4c0.7,0.2,1.3,0.6,1.8,1.1c0.5,0.5,0.9,1.1,1.2,1.7c0.3,0.7,0.4,1.4,0.4,2.2c0,0.8-0.1,1.5-0.4,2.2
		c-0.3,0.6-0.7,1.2-1.2,1.7c-0.5,0.5-1.1,0.9-1.8,1.1c-0.7,0.2-1.5,0.4-2.2,0.4c-0.8,0-1.5-0.1-2.2-0.4c-0.7-0.2-1.3-0.6-1.8-1.1
		c-0.5-0.5-0.9-1.1-1.2-1.7C77.4,12.2,77.3,11.4,77.3,10.6z M80.4,10.6c-0.1,0.7,0.2,1.3,0.7,1.8c1,0.9,2.6,0.9,3.6,0
		c0.4-0.5,0.7-1.1,0.7-1.8c0.1-0.7-0.2-1.3-0.7-1.8c-1-0.9-2.6-0.9-3.6,0C80.6,9.3,80.3,9.9,80.4,10.6z"/>
</g>
</svg>
