<?xml version="1.0" encoding="utf-8"?>
<!-- Generator: Adobe Illustrator 23.0.3, SVG Export Plug-In . SVG Version: 6.00 Build 0)  -->
<svg version="1.1" id="Layer_1" xmlns="http://www.w3.org/2000/svg" xmlns:xlink="http://www.w3.org/1999/xlink" x="0px" y="0px"
	 viewBox="0 0 126.5 16" style="enable-background:new 0 0 126.5 16;" xml:space="preserve">
<style type="text/css">
	.st0{fill:#EEEEEE;}
</style>
<title>newmexico</title>
<g>
	<path class="st0" d="M0,0.4h4.6l6.5,10.7l0,0V0.4h3.4v15.3h-4.4L3.4,4.8l0,0v10.9H0V0.4z"/>
	<path class="st0" d="M27.2,13.9c-0.5,0.7-1.2,1.2-2,1.5c-0.8,0.4-1.6,0.5-2.5,0.5c-0.8,0-1.6-0.1-2.3-0.4c-0.7-0.3-1.3-0.6-1.9-1.1
		c-0.5-0.5-0.9-1.1-1.2-1.7c-0.3-0.7-0.5-1.5-0.5-2.3c0-0.8,0.2-1.6,0.5-2.3c0.3-0.7,0.7-1.2,1.2-1.7c0.5-0.5,1.2-0.9,1.9-1.1
		c0.7-0.3,1.5-0.4,2.3-0.4c0.7,0,1.4,0.1,2,0.4c0.7,0.3,1.2,0.7,1.7,1.2c0.4,0.5,0.8,1.1,1,1.7c0.2,0.7,0.3,1.5,0.3,2.3v1h-7.5
		c0.1,0.6,0.4,1.1,0.8,1.5c0.4,0.4,1,0.6,1.6,0.6c0.5,0,1-0.1,1.4-0.4c0.4-0.2,0.7-0.5,1-0.9L27.2,13.9z M24.5,9.3
		c0-0.5-0.2-1-0.5-1.4c-0.4-0.4-0.9-0.6-1.5-0.6c-0.3,0-0.7,0.1-1,0.2c-0.2,0.1-0.5,0.2-0.7,0.4c-0.2,0.2-0.3,0.4-0.5,0.6
		c-0.1,0.2-0.2,0.5-0.2,0.7h4.4L24.5,9.3z"/>
	<path class="st0" d="M28.4,5.2h3.5l2.1,6.6l0,0l1.8-6.6h3.6l2,6.6l0,0l2-6.6h3.3L43,15.7h-3.2l-2.2-7l0,0l-2,7h-3.3L28.4,5.2z"/>
	<path class="st0" d="M54.6,0.4h5.1l3.5,10l0,0l3.6-10h5.1v15.3h-3.4V4l0,0l-4,11.8h-2.6L58,4l0,0v11.8h-3.4V0.4z"/>
	<path class="st0" d="M84.6,13.9c-0.5,0.7-1.2,1.2-2,1.5C81.9,15.8,81,16,80.2,16c-0.8,0-1.6-0.1-2.3-0.4c-0.7-0.3-1.3-0.6-1.9-1.1
		c-0.5-0.5-0.9-1.1-1.2-1.7c-0.3-0.7-0.5-1.5-0.5-2.3c0-0.8,0.2-1.6,0.5-2.3C75.1,7.5,75.5,7,76,6.5c0.5-0.5,1.2-0.9,1.9-1.1
		C78.6,5.1,79.4,5,80.2,5c0.7,0,1.4,0.1,2,0.4c0.6,0.3,1.1,0.6,1.6,1.1c0.4,0.5,0.8,1.1,1,1.7c0.2,0.7,0.3,1.5,0.3,2.3v1h-7.5
		c0.1,0.6,0.4,1.1,0.8,1.5c0.4,0.4,1,0.6,1.6,0.6c0.5,0,1-0.1,1.4-0.4c0.4-0.2,0.7-0.5,1-0.9L84.6,13.9z M81.9,9.3
		c0-0.5-0.2-1-0.5-1.4c-0.4-0.4-0.9-0.6-1.5-0.6c-0.3,0-0.7,0.1-1,0.2c-0.2,0.1-0.5,0.2-0.7,0.4c-0.2,0.2-0.3,0.4-0.5,0.6
		c-0.1,0.2-0.2,0.5-0.2,0.7h4.4L81.9,9.3z"/>
	<path class="st0" d="M89.9,10.1l-3.5-4.9h3.8l1.9,2.9l1.8-2.9h3.6l-3.4,4.9l4.1,5.6h-3.8L92,12.2l-2.5,3.5h-3.8L89.9,10.1z"/>
	<path class="st0" d="M98.9,1.9c0-0.5,0.2-1,0.6-1.3c0.3-0.4,0.8-0.6,1.3-0.6c0.5,0,1,0.2,1.3,0.6c0.4,0.3,0.6,0.8,0.6,1.3
		c0,0.5-0.2,1-0.6,1.3c-0.3,0.4-0.8,0.6-1.3,0.6c-0.5,0-1-0.2-1.3-0.6C99.1,2.9,98.9,2.4,98.9,1.9z M99.2,5.2h3.3v10.5h-3.3
		L99.2,5.2z"/>
	<path class="st0" d="M111.9,8.6c-0.2-0.2-0.4-0.4-0.7-0.6c-0.3-0.2-0.6-0.2-0.9-0.2c-0.7-0.1-1.4,0.2-1.9,0.7
		c-0.5,0.5-0.7,1.2-0.7,1.9c-0.1,1.3,0.9,2.5,2.2,2.6c0.1,0,0.2,0,0.4,0c0.3,0,0.6-0.1,0.9-0.2c0.3-0.1,0.5-0.3,0.7-0.6l2.1,2.3
		c-0.5,0.5-1.1,0.9-1.8,1.1c-0.6,0.2-1.3,0.3-2,0.3c-0.8,0-1.6-0.1-2.3-0.4c-0.7-0.3-1.3-0.6-1.9-1.1c-0.5-0.5-0.9-1.1-1.2-1.7
		c-0.3-0.7-0.5-1.5-0.5-2.3c0-0.8,0.2-1.6,0.5-2.3c0.3-0.7,0.7-1.2,1.2-1.7c0.5-0.5,1.2-0.9,1.9-1.1c0.7-0.3,1.5-0.4,2.3-0.4
		c0.7,0,1.4,0.1,2,0.3c0.7,0.2,1.3,0.6,1.8,1.1L111.9,8.6z"/>
	<path class="st0" d="M114.8,10.5c0-0.8,0.2-1.6,0.5-2.3c0.3-0.7,0.7-1.2,1.2-1.7c0.5-0.5,1.2-0.9,1.9-1.1c1.5-0.5,3.1-0.5,4.6,0
		c0.7,0.3,1.3,0.6,1.9,1.1c0.5,0.5,0.9,1.1,1.2,1.7c0.3,0.7,0.5,1.5,0.5,2.3c0,0.8-0.2,1.6-0.5,2.3c-0.3,0.7-0.7,1.2-1.2,1.7
		c-0.5,0.5-1.2,0.9-1.9,1.1c-1.5,0.5-3.1,0.5-4.6,0c-0.7-0.3-1.3-0.6-1.9-1.1c-0.5-0.5-0.9-1.1-1.2-1.7
		C115,12.1,114.8,11.3,114.8,10.5z M118.1,10.5c-0.1,1.3,0.9,2.5,2.2,2.6c0.1,0,0.2,0,0.4,0c0.7,0.1,1.4-0.2,1.9-0.7
		c0.5-0.5,0.7-1.2,0.7-1.9c0.1-1.3-0.9-2.5-2.2-2.6c-0.1,0-0.2,0-0.4,0c-1.3-0.1-2.5,0.9-2.6,2.2C118.1,10.3,118.1,10.4,118.1,10.5z
		"/>
</g>
</svg>
