<?xml version="1.0" encoding="utf-8"?>
<!-- Generator: Adobe Illustrator 23.0.3, SVG Export Plug-In . SVG Version: 6.00 Build 0)  -->
<svg version="1.1" id="Layer_1" xmlns="http://www.w3.org/2000/svg" xmlns:xlink="http://www.w3.org/1999/xlink" x="0px" y="0px"
	 viewBox="0 0 48.3 72.6" style="enable-background:new 0 0 48.3 72.6;" xml:space="preserve">
<style type="text/css">
	.st0{fill:none;stroke:#FFFFFF;stroke-width:2;stroke-linecap:round;stroke-linejoin:round;}
	.st1{fill:#FF0000;}
</style>
<path class="st0" d="M8,52.4L8,52.4L8,52.4l-0.4-0.2l-0.5,0.2l-0.4,0.2H6.5v0.1l-0.4,0.2l-0.3,0.3H5.7l-0.3,0.1v0.1H5.3v0.1H5.2v0.1
	l-1.5,1.2l-0.4-0.1l-0.7,0.4v0.1l-0.3,0.2H1.7v-0.1l-0.5,0.1H1v-8.6h3.1V46h0.8v-1.5h0.8l2.9,0.6l2.1,6.5h0.2v0.2h0.2l2,1.2l-2.2,1
	L8,52.4z"/>
<path class="st0" d="M41.5,17.1V17h0.1l0.9,0.3l2.4,2.5l0.5,1.6l1.1-3l-2.1-3.9l-1.2-1.1l-1.4,0.9l-5.4-2.1v-1.8h0.4l0.2,1.1
	l1.3-0.1l1.1-1.7l0.1-0.3L39.3,8l-0.4-1.2l-1.4,0.1l-1.2-2.3l1-0.9h0.6l-0.1,1.6l1.7-0.4l0.3-1.3L38.3,3l0.6-2l-1.7,0.1l-0.5,1.6
	l-1.3,0.1l-0.2-1l-1.7-0.2l-0.3,0.9l1.3,0.9l0.2,4.3h-1.1v2.8h-1.2l-0.3,1.9v2.8l3.6,4.2h1l0.9,5.8v3.2h-3.1L33,26l-0.8,0.1L31.4,23
	h-1.6l-7,0.1l0.1,3.8L18.2,27l-1.1,0.8l-0.4,1.5l-1.5,2.8l-6.2,2v4.6l1.9,1.3l1.8,3.7l4.9,4.7l1.1,1.4l0.9,1.6l-0.8,0.3h-0.4l-4.6,3
	l0.3,0.9l-2.5,0.9l-1.5,1.4l-0.1,1l-1.4,0.3L5.7,60l-2,2.4L2.6,63l-0.3,1.3H5v-1.2h8.5v-0.8l6.2-0.1l2.4,3.1l1.7,0.8v0.8l2.3-0.1
	v1.6h-0.7v1.2l0.8,1.9l0.3,0.1l1.5-1l0.9-1.1h0.3l0.3-0.1l6.2-4l1.2-0.9l0.2,0.1v1.3L35,66.5l0.6,2.5l0.3,0.1l0.2-0.6l3.9-1.7
	l1.1-1.1l6.2-1.3v-0.8l-3.5,0.1l1.5-5.7v-2.3l-0.9-3.1l-3.9-7.5h-1.8v-1.9l-1.9-3.3h2.5l0.1,3.1l2.1-0.8v-1.5h2.4L43,38.2v-1
	l0.1-1.6L43,35.2l-1.1-3.4l2-1l0.8-2.6l-4,0.1v-0.7l0.4-0.1l3.1-3.3L41.5,17.1"/>
<circle class="st1" cx="38.1" cy="21.4" r="6"/>
</svg>
