<?xml version="1.0" encoding="utf-8"?>
<!-- Generator: Adobe Illustrator 23.0.3, SVG Export Plug-In . SVG Version: 6.00 Build 0)  -->
<svg version="1.1" id="Layer_1" xmlns="http://www.w3.org/2000/svg" xmlns:xlink="http://www.w3.org/1999/xlink" x="0px" y="0px"
	 viewBox="0 0 44.1 16" style="enable-background:new 0 0 44.1 16;" xml:space="preserve">
<style type="text/css">
	.st0{fill:#EEEEEE;}
</style>
<title>utah</title>
<g>
	<path class="st0" d="M12.3,10c0,0.8-0.1,1.6-0.4,2.4c-0.3,0.7-0.7,1.3-1.2,1.9c-0.5,0.5-1.2,1-1.9,1.3C8,15.9,7.1,16,6.2,16
		c-0.9,0-1.8-0.2-2.7-0.5c-0.7-0.3-1.4-0.7-1.9-1.3c-0.5-0.6-0.9-1.2-1.2-1.9C0.1,11.6,0,10.8,0,10V1h3.2v8.9c0,0.4,0.1,0.9,0.2,1.3
		c0.1,0.4,0.3,0.7,0.6,1c0.3,0.3,0.6,0.5,0.9,0.7c0.5,0,0.9,0.1,1.3,0.1c0.4,0,0.8-0.1,1.2-0.2c0.4-0.1,0.7-0.4,0.9-0.7
		c0.3-0.3,0.5-0.6,0.6-1c0.1-0.4,0.2-0.9,0.2-1.3V1h3.2L12.3,10z"/>
	<path class="st0" d="M21.8,8.1H19v4.1c0,0.2,0.1,0.4,0.2,0.6c0.1,0.2,0.2,0.3,0.4,0.4c0.3,0.1,0.5,0.1,0.8,0.1c0.2,0,0.5,0,0.7-0.1
		c0.2,0,0.4-0.1,0.6-0.2v2.6c-0.4,0.1-0.7,0.2-1.1,0.2c-0.4,0-0.7,0.1-1.1,0.1c-0.5,0-0.9-0.1-1.4-0.2c-0.4-0.1-0.8-0.3-1.2-0.5
		c-0.3-0.3-0.6-0.6-0.8-0.9c-0.2-0.4-0.3-0.9-0.3-1.4V8.1h-2V5.6h2v-3H19v3h2.7L21.8,8.1L21.8,8.1z"/>
	<path class="st0" d="M29.6,14.4L29.6,14.4c-0.4,0.5-0.8,0.9-1.4,1.2C27.6,15.8,27,16,26.4,16c-0.5,0-0.9-0.1-1.4-0.2
		c-0.4-0.1-0.8-0.3-1.1-0.6c-0.3-0.3-0.6-0.6-0.8-1c-0.2-0.4-0.3-0.8-0.3-1.3c0-0.5,0.1-1,0.3-1.5c0.2-0.4,0.5-0.7,0.9-1
		c0.4-0.3,0.8-0.5,1.3-0.6c0.5-0.1,1-0.2,1.5-0.3c0.5-0.1,1-0.1,1.5-0.1h1.4c0-0.5-0.2-1-0.6-1.3c-0.4-0.3-0.9-0.5-1.4-0.5
		c-0.5,0-1,0.1-1.4,0.3c-0.4,0.2-0.8,0.5-1.1,0.9l-1.7-1.7c0.6-0.5,1.3-0.9,2-1.2c0.8-0.3,1.6-0.4,2.4-0.4c0.7,0,1.5,0.1,2.2,0.3
		c0.6,0.2,1,0.5,1.4,1c0.4,0.4,0.6,1,0.7,1.6c0.1,0.7,0.2,1.5,0.2,2.2v5.1h-2.9v-1.3H29.6z M28.9,11.2H28c-0.3,0-0.7,0.1-1,0.2
		c-0.3,0.1-0.6,0.2-0.8,0.4c-0.2,0.2-0.3,0.5-0.3,0.8c0,0.3,0.2,0.7,0.5,0.8c0.3,0.2,0.6,0.3,1,0.3c0.3,0,0.6,0,0.9-0.1
		c0.3-0.1,0.6-0.2,0.8-0.4c0.2-0.2,0.4-0.3,0.5-0.6c0.1-0.2,0.2-0.5,0.2-0.8v-0.7h-0.9L28.9,11.2z"/>
	<path class="st0" d="M37.5,0v6.9l0,0c0.1-0.2,0.2-0.4,0.4-0.6c0.2-0.2,0.4-0.4,0.6-0.5c0.2-0.2,0.5-0.3,0.8-0.4
		c0.3-0.1,0.7-0.1,1-0.1c0.7,0,1.3,0.1,1.9,0.4c0.5,0.2,0.9,0.5,1.1,1c0.3,0.4,0.5,1,0.5,1.5c0.1,0.6,0.1,1.3,0.1,1.9v5.5H41V9.8
		c0-0.3-0.1-0.6-0.2-0.9c-0.1-0.3-0.3-0.5-0.5-0.6c-0.2-0.2-0.5-0.2-0.9-0.2c-0.3,0-0.7,0.1-1,0.2c-0.2,0.1-0.5,0.4-0.6,0.6
		c-0.1,0.3-0.2,0.5-0.3,0.8c0,0.3-0.1,0.6-0.1,1v5h-3.1V0H37.5z"/>
</g>
</svg>
